<?xml version="1.0" encoding="utf-8" standalone="no"?>
<!DOCTYPE svg PUBLIC "-//W3C//DTD SVG 1.1//EN"
  "http://www.w3.org/Graphics/SVG/1.1/DTD/svg11.dtd">
<svg xmlns:xlink="http://www.w3.org/1999/xlink" width="460.8pt" height="345.6pt" viewBox="0 0 460.8 345.6" xmlns="http://www.w3.org/2000/svg" version="1.1">
 <metadata>
  <rdf:RDF xmlns:dc="http://purl.org/dc/elements/1.1/" xmlns:cc="http://creativecommons.org/ns#" xmlns:rdf="http://www.w3.org/1999/02/22-rdf-syntax-ns#">
   <cc:Work>
    <dc:type rdf:resource="http://purl.org/dc/dcmitype/StillImage"/>
    <dc:date>2022-08-29T16:19:09.911580</dc:date>
    <dc:format>image/svg+xml</dc:format>
    <dc:creator>
     <cc:Agent>
      <dc:title>Matplotlib v3.5.3, https://matplotlib.org/</dc:title>
     </cc:Agent>
    </dc:creator>
   </cc:Work>
  </rdf:RDF>
 </metadata>
 <defs>
  <style type="text/css">*{stroke-linejoin: round; stroke-linecap: butt}</style>
 </defs>
 <g id="figure_1">
  <g id="patch_1">
   <path d="M 0 345.6 
L 460.8 345.6 
L 460.8 0 
L 0 0 
z
" style="fill: #ffffff"/>
  </g>
  <g id="axes_1">
   <g id="patch_2">
    <path d="M 57.6 307.584 
L 414.72 307.584 
L 414.72 41.472 
L 57.6 41.472 
z
" style="fill: #ffffff"/>
   </g>
   <g id="matplotlib.axis_1">
    <g id="xtick_1">
     <g id="line2d_1">
      <defs>
       <path id="mb61055854b" d="M 0 0 
L 0 3.5 
" style="stroke: #000000; stroke-width: 0.8"/>
      </defs>
      <g>
       <use xlink:href="#mb61055854b" x="73.832727" y="307.584" style="stroke: #000000; stroke-width: 0.8"/>
      </g>
     </g>
     <g id="text_1">
      <!-- 0 -->
      <g transform="translate(70.651477 322.182437)scale(0.1 -0.1)">
       <defs>
        <path id="DejaVuSans-30" d="M 2034 4250 
Q 1547 4250 1301 3770 
Q 1056 3291 1056 2328 
Q 1056 1369 1301 889 
Q 1547 409 2034 409 
Q 2525 409 2770 889 
Q 3016 1369 3016 2328 
Q 3016 3291 2770 3770 
Q 2525 4250 2034 4250 
z
M 2034 4750 
Q 2819 4750 3233 4129 
Q 3647 3509 3647 2328 
Q 3647 1150 3233 529 
Q 2819 -91 2034 -91 
Q 1250 -91 836 529 
Q 422 1150 422 2328 
Q 422 3509 836 4129 
Q 1250 4750 2034 4750 
z
" transform="scale(0.015625)"/>
       </defs>
       <use xlink:href="#DejaVuSans-30"/>
      </g>
     </g>
    </g>
    <g id="xtick_2">
     <g id="line2d_2">
      <g>
       <use xlink:href="#mb61055854b" x="128.032151" y="307.584" style="stroke: #000000; stroke-width: 0.8"/>
      </g>
     </g>
     <g id="text_2">
      <!-- 100 -->
      <g transform="translate(118.488401 322.182437)scale(0.1 -0.1)">
       <defs>
        <path id="DejaVuSans-31" d="M 794 531 
L 1825 531 
L 1825 4091 
L 703 3866 
L 703 4441 
L 1819 4666 
L 2450 4666 
L 2450 531 
L 3481 531 
L 3481 0 
L 794 0 
L 794 531 
z
" transform="scale(0.015625)"/>
       </defs>
       <use xlink:href="#DejaVuSans-31"/>
       <use xlink:href="#DejaVuSans-30" x="63.623047"/>
       <use xlink:href="#DejaVuSans-30" x="127.246094"/>
      </g>
     </g>
    </g>
    <g id="xtick_3">
     <g id="line2d_3">
      <g>
       <use xlink:href="#mb61055854b" x="182.231574" y="307.584" style="stroke: #000000; stroke-width: 0.8"/>
      </g>
     </g>
     <g id="text_3">
      <!-- 200 -->
      <g transform="translate(172.687824 322.182437)scale(0.1 -0.1)">
       <defs>
        <path id="DejaVuSans-32" d="M 1228 531 
L 3431 531 
L 3431 0 
L 469 0 
L 469 531 
Q 828 903 1448 1529 
Q 2069 2156 2228 2338 
Q 2531 2678 2651 2914 
Q 2772 3150 2772 3378 
Q 2772 3750 2511 3984 
Q 2250 4219 1831 4219 
Q 1534 4219 1204 4116 
Q 875 4013 500 3803 
L 500 4441 
Q 881 4594 1212 4672 
Q 1544 4750 1819 4750 
Q 2544 4750 2975 4387 
Q 3406 4025 3406 3419 
Q 3406 3131 3298 2873 
Q 3191 2616 2906 2266 
Q 2828 2175 2409 1742 
Q 1991 1309 1228 531 
z
" transform="scale(0.015625)"/>
       </defs>
       <use xlink:href="#DejaVuSans-32"/>
       <use xlink:href="#DejaVuSans-30" x="63.623047"/>
       <use xlink:href="#DejaVuSans-30" x="127.246094"/>
      </g>
     </g>
    </g>
    <g id="xtick_4">
     <g id="line2d_4">
      <g>
       <use xlink:href="#mb61055854b" x="236.430997" y="307.584" style="stroke: #000000; stroke-width: 0.8"/>
      </g>
     </g>
     <g id="text_4">
      <!-- 300 -->
      <g transform="translate(226.887247 322.182437)scale(0.1 -0.1)">
       <defs>
        <path id="DejaVuSans-33" d="M 2597 2516 
Q 3050 2419 3304 2112 
Q 3559 1806 3559 1356 
Q 3559 666 3084 287 
Q 2609 -91 1734 -91 
Q 1441 -91 1130 -33 
Q 819 25 488 141 
L 488 750 
Q 750 597 1062 519 
Q 1375 441 1716 441 
Q 2309 441 2620 675 
Q 2931 909 2931 1356 
Q 2931 1769 2642 2001 
Q 2353 2234 1838 2234 
L 1294 2234 
L 1294 2753 
L 1863 2753 
Q 2328 2753 2575 2939 
Q 2822 3125 2822 3475 
Q 2822 3834 2567 4026 
Q 2313 4219 1838 4219 
Q 1578 4219 1281 4162 
Q 984 4106 628 3988 
L 628 4550 
Q 988 4650 1302 4700 
Q 1616 4750 1894 4750 
Q 2613 4750 3031 4423 
Q 3450 4097 3450 3541 
Q 3450 3153 3228 2886 
Q 3006 2619 2597 2516 
z
" transform="scale(0.015625)"/>
       </defs>
       <use xlink:href="#DejaVuSans-33"/>
       <use xlink:href="#DejaVuSans-30" x="63.623047"/>
       <use xlink:href="#DejaVuSans-30" x="127.246094"/>
      </g>
     </g>
    </g>
    <g id="xtick_5">
     <g id="line2d_5">
      <g>
       <use xlink:href="#mb61055854b" x="290.63042" y="307.584" style="stroke: #000000; stroke-width: 0.8"/>
      </g>
     </g>
     <g id="text_5">
      <!-- 400 -->
      <g transform="translate(281.08667 322.182437)scale(0.1 -0.1)">
       <defs>
        <path id="DejaVuSans-34" d="M 2419 4116 
L 825 1625 
L 2419 1625 
L 2419 4116 
z
M 2253 4666 
L 3047 4666 
L 3047 1625 
L 3713 1625 
L 3713 1100 
L 3047 1100 
L 3047 0 
L 2419 0 
L 2419 1100 
L 313 1100 
L 313 1709 
L 2253 4666 
z
" transform="scale(0.015625)"/>
       </defs>
       <use xlink:href="#DejaVuSans-34"/>
       <use xlink:href="#DejaVuSans-30" x="63.623047"/>
       <use xlink:href="#DejaVuSans-30" x="127.246094"/>
      </g>
     </g>
    </g>
    <g id="xtick_6">
     <g id="line2d_6">
      <g>
       <use xlink:href="#mb61055854b" x="344.829844" y="307.584" style="stroke: #000000; stroke-width: 0.8"/>
      </g>
     </g>
     <g id="text_6">
      <!-- 500 -->
      <g transform="translate(335.286094 322.182437)scale(0.1 -0.1)">
       <defs>
        <path id="DejaVuSans-35" d="M 691 4666 
L 3169 4666 
L 3169 4134 
L 1269 4134 
L 1269 2991 
Q 1406 3038 1543 3061 
Q 1681 3084 1819 3084 
Q 2600 3084 3056 2656 
Q 3513 2228 3513 1497 
Q 3513 744 3044 326 
Q 2575 -91 1722 -91 
Q 1428 -91 1123 -41 
Q 819 9 494 109 
L 494 744 
Q 775 591 1075 516 
Q 1375 441 1709 441 
Q 2250 441 2565 725 
Q 2881 1009 2881 1497 
Q 2881 1984 2565 2268 
Q 2250 2553 1709 2553 
Q 1456 2553 1204 2497 
Q 953 2441 691 2322 
L 691 4666 
z
" transform="scale(0.015625)"/>
       </defs>
       <use xlink:href="#DejaVuSans-35"/>
       <use xlink:href="#DejaVuSans-30" x="63.623047"/>
       <use xlink:href="#DejaVuSans-30" x="127.246094"/>
      </g>
     </g>
    </g>
    <g id="xtick_7">
     <g id="line2d_7">
      <g>
       <use xlink:href="#mb61055854b" x="399.029267" y="307.584" style="stroke: #000000; stroke-width: 0.8"/>
      </g>
     </g>
     <g id="text_7">
      <!-- 600 -->
      <g transform="translate(389.485517 322.182437)scale(0.1 -0.1)">
       <defs>
        <path id="DejaVuSans-36" d="M 2113 2584 
Q 1688 2584 1439 2293 
Q 1191 2003 1191 1497 
Q 1191 994 1439 701 
Q 1688 409 2113 409 
Q 2538 409 2786 701 
Q 3034 994 3034 1497 
Q 3034 2003 2786 2293 
Q 2538 2584 2113 2584 
z
M 3366 4563 
L 3366 3988 
Q 3128 4100 2886 4159 
Q 2644 4219 2406 4219 
Q 1781 4219 1451 3797 
Q 1122 3375 1075 2522 
Q 1259 2794 1537 2939 
Q 1816 3084 2150 3084 
Q 2853 3084 3261 2657 
Q 3669 2231 3669 1497 
Q 3669 778 3244 343 
Q 2819 -91 2113 -91 
Q 1303 -91 875 529 
Q 447 1150 447 2328 
Q 447 3434 972 4092 
Q 1497 4750 2381 4750 
Q 2619 4750 2861 4703 
Q 3103 4656 3366 4563 
z
" transform="scale(0.015625)"/>
       </defs>
       <use xlink:href="#DejaVuSans-36"/>
       <use xlink:href="#DejaVuSans-30" x="63.623047"/>
       <use xlink:href="#DejaVuSans-30" x="127.246094"/>
      </g>
     </g>
    </g>
    <g id="text_8">
     <!-- Epoch -->
     <g transform="translate(220.849063 335.860562)scale(0.1 -0.1)">
      <defs>
       <path id="DejaVuSans-45" d="M 628 4666 
L 3578 4666 
L 3578 4134 
L 1259 4134 
L 1259 2753 
L 3481 2753 
L 3481 2222 
L 1259 2222 
L 1259 531 
L 3634 531 
L 3634 0 
L 628 0 
L 628 4666 
z
" transform="scale(0.015625)"/>
       <path id="DejaVuSans-70" d="M 1159 525 
L 1159 -1331 
L 581 -1331 
L 581 3500 
L 1159 3500 
L 1159 2969 
Q 1341 3281 1617 3432 
Q 1894 3584 2278 3584 
Q 2916 3584 3314 3078 
Q 3713 2572 3713 1747 
Q 3713 922 3314 415 
Q 2916 -91 2278 -91 
Q 1894 -91 1617 61 
Q 1341 213 1159 525 
z
M 3116 1747 
Q 3116 2381 2855 2742 
Q 2594 3103 2138 3103 
Q 1681 3103 1420 2742 
Q 1159 2381 1159 1747 
Q 1159 1113 1420 752 
Q 1681 391 2138 391 
Q 2594 391 2855 752 
Q 3116 1113 3116 1747 
z
" transform="scale(0.015625)"/>
       <path id="DejaVuSans-6f" d="M 1959 3097 
Q 1497 3097 1228 2736 
Q 959 2375 959 1747 
Q 959 1119 1226 758 
Q 1494 397 1959 397 
Q 2419 397 2687 759 
Q 2956 1122 2956 1747 
Q 2956 2369 2687 2733 
Q 2419 3097 1959 3097 
z
M 1959 3584 
Q 2709 3584 3137 3096 
Q 3566 2609 3566 1747 
Q 3566 888 3137 398 
Q 2709 -91 1959 -91 
Q 1206 -91 779 398 
Q 353 888 353 1747 
Q 353 2609 779 3096 
Q 1206 3584 1959 3584 
z
" transform="scale(0.015625)"/>
       <path id="DejaVuSans-63" d="M 3122 3366 
L 3122 2828 
Q 2878 2963 2633 3030 
Q 2388 3097 2138 3097 
Q 1578 3097 1268 2742 
Q 959 2388 959 1747 
Q 959 1106 1268 751 
Q 1578 397 2138 397 
Q 2388 397 2633 464 
Q 2878 531 3122 666 
L 3122 134 
Q 2881 22 2623 -34 
Q 2366 -91 2075 -91 
Q 1284 -91 818 406 
Q 353 903 353 1747 
Q 353 2603 823 3093 
Q 1294 3584 2113 3584 
Q 2378 3584 2631 3529 
Q 2884 3475 3122 3366 
z
" transform="scale(0.015625)"/>
       <path id="DejaVuSans-68" d="M 3513 2113 
L 3513 0 
L 2938 0 
L 2938 2094 
Q 2938 2591 2744 2837 
Q 2550 3084 2163 3084 
Q 1697 3084 1428 2787 
Q 1159 2491 1159 1978 
L 1159 0 
L 581 0 
L 581 4863 
L 1159 4863 
L 1159 2956 
Q 1366 3272 1645 3428 
Q 1925 3584 2291 3584 
Q 2894 3584 3203 3211 
Q 3513 2838 3513 2113 
z
" transform="scale(0.015625)"/>
      </defs>
      <use xlink:href="#DejaVuSans-45"/>
      <use xlink:href="#DejaVuSans-70" x="63.183594"/>
      <use xlink:href="#DejaVuSans-6f" x="126.660156"/>
      <use xlink:href="#DejaVuSans-63" x="187.841797"/>
      <use xlink:href="#DejaVuSans-68" x="242.822266"/>
     </g>
    </g>
   </g>
   <g id="matplotlib.axis_2">
    <g id="ytick_1">
     <g id="line2d_8">
      <defs>
       <path id="me239c6cb35" d="M 0 0 
L -3.5 0 
" style="stroke: #000000; stroke-width: 0.8"/>
      </defs>
      <g>
       <use xlink:href="#me239c6cb35" x="57.6" y="268.070618" style="stroke: #000000; stroke-width: 0.8"/>
      </g>
     </g>
     <g id="text_9">
      <!-- 20 -->
      <g transform="translate(37.875 271.869837)scale(0.1 -0.1)">
       <use xlink:href="#DejaVuSans-32"/>
       <use xlink:href="#DejaVuSans-30" x="63.623047"/>
      </g>
     </g>
    </g>
    <g id="ytick_2">
     <g id="line2d_9">
      <g>
       <use xlink:href="#me239c6cb35" x="57.6" y="213.235855" style="stroke: #000000; stroke-width: 0.8"/>
      </g>
     </g>
     <g id="text_10">
      <!-- 40 -->
      <g transform="translate(37.875 217.035074)scale(0.1 -0.1)">
       <use xlink:href="#DejaVuSans-34"/>
       <use xlink:href="#DejaVuSans-30" x="63.623047"/>
      </g>
     </g>
    </g>
    <g id="ytick_3">
     <g id="line2d_10">
      <g>
       <use xlink:href="#me239c6cb35" x="57.6" y="158.401092" style="stroke: #000000; stroke-width: 0.8"/>
      </g>
     </g>
     <g id="text_11">
      <!-- 60 -->
      <g transform="translate(37.875 162.200311)scale(0.1 -0.1)">
       <use xlink:href="#DejaVuSans-36"/>
       <use xlink:href="#DejaVuSans-30" x="63.623047"/>
      </g>
     </g>
    </g>
    <g id="ytick_4">
     <g id="line2d_11">
      <g>
       <use xlink:href="#me239c6cb35" x="57.6" y="103.566329" style="stroke: #000000; stroke-width: 0.8"/>
      </g>
     </g>
     <g id="text_12">
      <!-- 80 -->
      <g transform="translate(37.875 107.365548)scale(0.1 -0.1)">
       <defs>
        <path id="DejaVuSans-38" d="M 2034 2216 
Q 1584 2216 1326 1975 
Q 1069 1734 1069 1313 
Q 1069 891 1326 650 
Q 1584 409 2034 409 
Q 2484 409 2743 651 
Q 3003 894 3003 1313 
Q 3003 1734 2745 1975 
Q 2488 2216 2034 2216 
z
M 1403 2484 
Q 997 2584 770 2862 
Q 544 3141 544 3541 
Q 544 4100 942 4425 
Q 1341 4750 2034 4750 
Q 2731 4750 3128 4425 
Q 3525 4100 3525 3541 
Q 3525 3141 3298 2862 
Q 3072 2584 2669 2484 
Q 3125 2378 3379 2068 
Q 3634 1759 3634 1313 
Q 3634 634 3220 271 
Q 2806 -91 2034 -91 
Q 1263 -91 848 271 
Q 434 634 434 1313 
Q 434 1759 690 2068 
Q 947 2378 1403 2484 
z
M 1172 3481 
Q 1172 3119 1398 2916 
Q 1625 2713 2034 2713 
Q 2441 2713 2670 2916 
Q 2900 3119 2900 3481 
Q 2900 3844 2670 4047 
Q 2441 4250 2034 4250 
Q 1625 4250 1398 4047 
Q 1172 3844 1172 3481 
z
" transform="scale(0.015625)"/>
       </defs>
       <use xlink:href="#DejaVuSans-38"/>
       <use xlink:href="#DejaVuSans-30" x="63.623047"/>
      </g>
     </g>
    </g>
    <g id="ytick_5">
     <g id="line2d_12">
      <g>
       <use xlink:href="#me239c6cb35" x="57.6" y="48.731566" style="stroke: #000000; stroke-width: 0.8"/>
      </g>
     </g>
     <g id="text_13">
      <!-- 100 -->
      <g transform="translate(31.5125 52.530784)scale(0.1 -0.1)">
       <use xlink:href="#DejaVuSans-31"/>
       <use xlink:href="#DejaVuSans-30" x="63.623047"/>
       <use xlink:href="#DejaVuSans-30" x="127.246094"/>
      </g>
     </g>
    </g>
    <g id="text_14">
     <!-- Accuracy -->
     <g transform="translate(25.432812 197.356125)rotate(-90)scale(0.1 -0.1)">
      <defs>
       <path id="DejaVuSans-41" d="M 2188 4044 
L 1331 1722 
L 3047 1722 
L 2188 4044 
z
M 1831 4666 
L 2547 4666 
L 4325 0 
L 3669 0 
L 3244 1197 
L 1141 1197 
L 716 0 
L 50 0 
L 1831 4666 
z
" transform="scale(0.015625)"/>
       <path id="DejaVuSans-75" d="M 544 1381 
L 544 3500 
L 1119 3500 
L 1119 1403 
Q 1119 906 1312 657 
Q 1506 409 1894 409 
Q 2359 409 2629 706 
Q 2900 1003 2900 1516 
L 2900 3500 
L 3475 3500 
L 3475 0 
L 2900 0 
L 2900 538 
Q 2691 219 2414 64 
Q 2138 -91 1772 -91 
Q 1169 -91 856 284 
Q 544 659 544 1381 
z
M 1991 3584 
L 1991 3584 
z
" transform="scale(0.015625)"/>
       <path id="DejaVuSans-72" d="M 2631 2963 
Q 2534 3019 2420 3045 
Q 2306 3072 2169 3072 
Q 1681 3072 1420 2755 
Q 1159 2438 1159 1844 
L 1159 0 
L 581 0 
L 581 3500 
L 1159 3500 
L 1159 2956 
Q 1341 3275 1631 3429 
Q 1922 3584 2338 3584 
Q 2397 3584 2469 3576 
Q 2541 3569 2628 3553 
L 2631 2963 
z
" transform="scale(0.015625)"/>
       <path id="DejaVuSans-61" d="M 2194 1759 
Q 1497 1759 1228 1600 
Q 959 1441 959 1056 
Q 959 750 1161 570 
Q 1363 391 1709 391 
Q 2188 391 2477 730 
Q 2766 1069 2766 1631 
L 2766 1759 
L 2194 1759 
z
M 3341 1997 
L 3341 0 
L 2766 0 
L 2766 531 
Q 2569 213 2275 61 
Q 1981 -91 1556 -91 
Q 1019 -91 701 211 
Q 384 513 384 1019 
Q 384 1609 779 1909 
Q 1175 2209 1959 2209 
L 2766 2209 
L 2766 2266 
Q 2766 2663 2505 2880 
Q 2244 3097 1772 3097 
Q 1472 3097 1187 3025 
Q 903 2953 641 2809 
L 641 3341 
Q 956 3463 1253 3523 
Q 1550 3584 1831 3584 
Q 2591 3584 2966 3190 
Q 3341 2797 3341 1997 
z
" transform="scale(0.015625)"/>
       <path id="DejaVuSans-79" d="M 2059 -325 
Q 1816 -950 1584 -1140 
Q 1353 -1331 966 -1331 
L 506 -1331 
L 506 -850 
L 844 -850 
Q 1081 -850 1212 -737 
Q 1344 -625 1503 -206 
L 1606 56 
L 191 3500 
L 800 3500 
L 1894 763 
L 2988 3500 
L 3597 3500 
L 2059 -325 
z
" transform="scale(0.015625)"/>
      </defs>
      <use xlink:href="#DejaVuSans-41"/>
      <use xlink:href="#DejaVuSans-63" x="66.658203"/>
      <use xlink:href="#DejaVuSans-63" x="121.638672"/>
      <use xlink:href="#DejaVuSans-75" x="176.619141"/>
      <use xlink:href="#DejaVuSans-72" x="239.998047"/>
      <use xlink:href="#DejaVuSans-61" x="281.111328"/>
      <use xlink:href="#DejaVuSans-63" x="342.390625"/>
      <use xlink:href="#DejaVuSans-79" x="397.371094"/>
     </g>
    </g>
   </g>
   <g id="line2d_13">
    <path d="M 73.832727 240.187144 
L 74.374722 183.126092 
L 74.916716 160.358699 
L 75.45871 145.558799 
L 76.000704 133.98318 
L 77.084693 120.301907 
L 77.626687 115.202274 
L 78.168681 112.570205 
L 78.710675 108.951111 
L 80.336658 102.338036 
L 80.878652 100.813629 
L 81.420647 100.007561 
L 81.962641 98.351548 
L 82.504635 97.282273 
L 83.046629 95.883987 
L 83.588623 94.929862 
L 84.130618 94.463766 
L 84.672612 93.723497 
L 85.214606 92.127805 
L 85.7566 91.546557 
L 86.298595 90.795318 
L 86.840589 91.036594 
L 87.382583 89.506704 
L 87.924577 89.676689 
L 88.466572 89.528638 
L 89.008566 89.671208 
L 89.55056 87.987781 
L 90.092554 87.751991 
L 90.634548 87.115908 
L 91.176543 87.70264 
L 91.718537 86.392089 
L 92.260531 86.386606 
L 93.34452 85.564084 
L 93.886514 85.558598 
L 94.428508 85.827291 
L 95.512497 85.010253 
L 96.054491 84.280951 
L 96.596485 84.445455 
L 97.138479 83.370694 
L 97.680474 85.059602 
L 98.222468 84.39062 
L 98.764462 83.348757 
L 99.306456 83.875171 
L 99.84845 83.524231 
L 100.390445 83.354243 
L 100.932439 82.674292 
L 101.474433 82.389152 
L 102.558422 82.400116 
L 103.100416 81.939506 
L 103.64241 82.093044 
L 104.726399 82.109494 
L 105.810387 81.056667 
L 106.352381 81.243105 
L 106.894375 80.925063 
L 107.43637 81.451477 
L 107.978364 81.248586 
L 108.520358 80.76604 
L 109.062352 80.053191 
L 109.604347 79.938038 
L 110.146341 80.475416 
L 110.688335 80.124476 
L 111.230329 80.036737 
L 111.772324 80.809908 
L 112.314318 80.124476 
L 112.856312 80.294464 
L 113.398306 79.219702 
L 113.940301 79.450008 
L 114.482295 79.855783 
L 115.024289 79.64193 
L 115.566283 79.888686 
L 116.108277 78.956495 
L 116.650272 78.704255 
L 117.73426 79.175834 
L 118.276254 78.419112 
L 118.818249 79.433555 
L 119.360243 78.879727 
L 119.902237 78.523301 
L 120.444231 78.462982 
L 120.986226 78.896177 
L 121.52822 78.643934 
L 122.070214 78.00237 
L 122.612208 78.484916 
L 123.154202 77.711743 
L 124.780185 78.172358 
L 125.322179 77.991404 
L 126.406168 77.443053 
L 126.948162 77.854314 
L 127.490156 77.157915 
L 128.032151 77.71723 
L 128.574145 77.448539 
L 129.116139 77.399188 
L 129.658133 77.514341 
L 130.200127 77.053729 
L 130.742122 77.295002 
L 131.284116 77.815932 
L 131.82611 77.141462 
L 132.368104 76.93309 
L 132.910099 77.223714 
L 133.452093 76.094121 
L 133.994087 77.037279 
L 134.536081 76.401195 
L 135.078076 76.796006 
L 135.62007 76.604081 
L 136.162064 77.602077 
L 136.704058 77.207264 
L 137.246053 77.125012 
L 137.788047 76.527315 
L 138.330041 76.318943 
L 138.872035 76.571183 
L 140.498018 76.85084 
L 141.040012 76.428613 
L 141.582006 76.368292 
L 142.124001 76.741171 
L 142.665995 76.31346 
L 143.207989 76.269592 
L 143.749983 76.631501 
L 144.291978 76.318941 
L 144.833972 76.247655 
L 145.375966 76.351844 
L 147.543943 75.891229 
L 148.085937 76.088637 
L 148.627931 76.088637 
L 149.169926 76.373775 
L 149.71192 76.165403 
L 150.253914 76.527315 
L 150.795908 75.649959 
L 151.337903 76.055736 
L 151.879897 75.885749 
L 152.421891 76.242175 
L 152.963885 75.090645 
L 153.505879 75.693827 
L 154.589868 76.280559 
L 155.131862 75.353851 
L 155.673856 75.710275 
L 156.215851 75.798013 
L 156.757845 75.342884 
L 157.299839 75.271597 
L 157.841833 75.02484 
L 158.383828 75.3045 
L 158.925822 75.057744 
L 159.467816 75.118059 
L 160.00981 74.898723 
L 160.551805 75.715761 
L 161.093799 76.017352 
L 162.719781 75.079678 
L 163.80377 75.403203 
L 164.345764 74.959041 
L 164.887758 75.134512 
L 165.429753 75.469002 
L 165.971747 75.408683 
L 166.513741 74.789051 
L 167.055735 74.953558 
L 167.59773 74.745186 
L 168.139724 75.3045 
L 168.681718 74.728735 
L 169.223712 75.359335 
L 169.765706 74.597129 
L 170.307701 74.575198 
L 170.849695 74.251673 
L 171.391689 74.608096 
L 171.933683 74.586165 
L 172.475678 75.200314 
L 173.017672 75.068711 
L 173.559666 75.090645 
L 174.10166 74.871303 
L 174.643655 74.191352 
L 175.185649 74.959038 
L 175.727643 74.421658 
L 176.269637 74.959041 
L 176.811632 75.041293 
L 177.353626 74.339408 
L 177.89562 74.619063 
L 178.437614 74.471012 
L 178.979608 75.002909 
L 179.521603 74.081682 
L 180.063597 74.553264 
L 180.605591 74.103619 
L 181.147585 74.767117 
L 181.68958 74.509396 
L 182.231574 73.944598 
L 182.773568 73.703325 
L 183.315562 74.717768 
L 184.399551 73.511401 
L 184.941545 74.010397 
L 185.483539 74.021367 
L 186.025533 73.791061 
L 186.567528 74.207805 
L 187.109522 73.703325 
L 188.19351 74.136517 
L 188.735505 74.065234 
L 189.277499 73.741707 
L 189.819493 74.032334 
L 190.361487 73.588172 
L 191.98747 73.917178 
L 192.529464 73.357866 
L 193.071458 73.429148 
L 193.613453 73.752676 
L 194.155447 73.862343 
L 194.697441 73.3798 
L 195.239435 73.292062 
L 195.78143 73.330449 
L 196.323424 73.078206 
L 196.865418 73.122074 
L 197.407412 73.335932 
L 197.949407 73.303031 
L 198.491401 73.418184 
L 199.033395 73.012407 
L 199.575389 73.313998 
L 200.117384 73.818478 
L 200.659378 72.727266 
L 201.201372 72.820485 
L 201.743366 73.094659 
L 202.28536 72.974023 
L 202.827355 73.089173 
L 204.453337 72.95757 
L 204.995332 72.540828 
L 205.537326 72.359871 
L 206.07932 72.974023 
L 207.163309 72.420192 
L 207.705303 73.094659 
L 208.247297 72.392774 
L 208.789291 72.677915 
L 209.331285 72.721783 
L 210.957268 72.365354 
L 211.499262 72.392771 
L 212.041257 72.195369 
L 212.583251 72.381805 
L 213.125245 72.299552 
L 213.667239 72.102147 
L 214.209234 72.063766 
L 214.751228 72.195369 
L 215.293222 71.592184 
L 216.377211 72.069246 
L 216.919205 71.997964 
L 217.461199 71.718304 
L 218.003193 71.866358 
L 218.545187 71.548316 
L 219.087182 72.030865 
L 219.629176 71.647021 
L 220.713164 71.745724 
L 221.797153 71.383815 
L 222.339147 71.712823 
L 222.881141 71.416715 
L 223.423136 71.751207 
L 223.96513 71.241244 
L 224.507124 71.246728 
L 225.049118 70.983521 
L 225.591112 71.515415 
L 226.675101 71.235761 
L 227.217095 71.625085 
L 227.759089 71.153509 
L 228.301084 71.334461 
L 228.843078 71.800556 
L 229.385072 70.79708 
L 229.927066 71.504451 
L 230.469061 70.80805 
L 231.011055 71.120605 
L 231.553049 70.58871 
L 232.095043 70.495491 
L 232.637037 70.577744 
L 233.721026 71.120605 
L 234.26302 70.851917 
L 234.805014 71.065773 
L 235.347009 70.769665 
L 235.889003 70.659996 
L 236.430997 71.180923 
L 236.972991 70.117132 
L 237.514986 70.479041 
L 238.598974 70.04036 
L 239.682963 70.380336 
L 240.224957 70.69838 
L 240.766951 69.914243 
L 241.308945 69.881339 
L 241.850939 69.980042 
L 242.392934 69.322025 
L 242.934928 70.341951 
L 243.476922 69.936177 
L 244.018916 69.716838 
L 244.560911 69.810057 
L 245.102905 69.640066 
L 245.644899 69.892306 
L 246.728888 69.212358 
L 247.270882 69.952627 
L 247.812876 69.831988 
L 248.35487 69.289127 
L 248.896864 69.678453 
L 249.438859 69.782639 
L 249.980853 69.25074 
L 250.522847 69.003986 
L 251.064841 69.108172 
L 251.606836 69.338478 
L 252.14883 69.360409 
L 252.690824 68.735293 
L 253.232818 68.647557 
L 253.774813 68.976568 
L 254.316807 68.960118 
L 255.400795 68.53789 
L 255.942789 69.124622 
L 256.484784 69.261709 
L 257.026778 68.499506 
L 257.568772 68.559824 
L 258.110766 69.075271 
L 258.652761 68.669494 
L 259.736749 68.280164 
L 260.278743 68.450152 
L 260.820738 68.280167 
L 261.362732 68.263714 
L 261.904726 68.104696 
L 262.44672 68.373383 
L 262.988715 68.044375 
L 264.072703 68.066309 
L 264.614697 67.369907 
L 265.156691 67.523447 
L 265.698686 67.967606 
L 267.324668 67.177988 
L 267.866663 67.720852 
L 268.408657 67.545381 
L 268.950651 67.715369 
L 270.03464 67.506997 
L 270.576634 67.649567 
L 271.660622 66.465134 
L 272.202616 66.9751 
L 272.744611 66.9751 
L 273.286605 67.446679 
L 273.828599 66.377398 
L 274.370593 66.262245 
L 274.912588 66.947682 
L 275.454582 67.238304 
L 275.996576 66.382884 
L 277.080565 66.870914 
L 278.164553 66.766727 
L 278.706547 66.267731 
L 279.248542 66.23483 
L 279.790536 66.355464 
L 281.416518 66.10871 
L 283.042501 65.57133 
L 283.584495 65.072331 
L 284.12649 65.724867 
L 284.668484 65.69745 
L 285.210478 66.119675 
L 285.752472 65.46166 
L 286.294467 65.182003 
L 286.836461 64.573337 
L 287.378455 65.127168 
L 288.462443 64.825574 
L 289.546432 65.357474 
L 290.63042 64.683006 
L 291.172415 64.194974 
L 291.714409 64.430767 
L 292.798397 64.578818 
L 293.340392 64.913313 
L 294.966374 63.865969 
L 295.508368 64.090788 
L 296.050363 63.739849 
L 296.592357 63.948218 
L 297.134351 63.745332 
L 297.676345 64.019506 
L 298.21834 63.405357 
L 298.760334 63.860485 
L 299.302328 63.975635 
L 299.844322 63.547927 
L 300.386317 63.739849 
L 300.928311 63.345036 
L 301.470305 63.202468 
L 302.012299 62.928291 
L 302.554294 62.90636 
L 303.096288 63.42729 
L 303.638282 62.730889 
L 304.180276 62.325109 
L 304.72227 63.153114 
L 305.264265 62.270277 
L 305.806259 62.730886 
L 306.348253 62.676054 
L 306.890247 62.325112 
L 307.974236 62.264793 
L 308.51623 61.859016 
L 309.058224 62.51155 
L 309.600219 62.308659 
L 310.142213 61.859016 
L 310.684207 61.891914 
L 311.226201 61.508071 
L 311.768195 61.332602 
L 312.31019 62.231893 
L 312.852184 61.568392 
L 313.394178 61.447753 
L 313.936172 61.497107 
L 314.478167 61.721929 
L 315.020161 61.732896 
L 315.562155 60.71297 
L 316.104149 60.817156 
L 316.646144 60.548465 
L 317.188138 60.877474 
L 317.730132 60.789738 
L 318.272126 60.987143 
L 318.814121 60.915858 
L 319.356115 60.636201 
L 320.440103 60.833603 
L 320.982097 60.197523 
L 321.524092 59.863031 
L 322.066086 60.268808 
L 322.60808 60.016568 
L 323.150074 60.285258 
L 323.692069 59.989148 
L 324.234063 59.912382 
L 325.318051 59.479187 
L 325.860046 59.621758 
L 326.40204 59.287263 
L 326.944034 59.731427 
L 327.486028 59.161146 
L 328.028022 59.320167 
L 329.112011 59.111792 
L 329.654005 59.270815 
L 330.195999 58.700531 
L 330.737994 58.903422 
L 331.279988 59.588857 
L 331.821982 58.398943 
L 332.363976 58.969221 
L 332.905971 58.228955 
L 333.447965 57.998649 
L 333.989959 58.058967 
L 334.531953 58.590862 
L 335.073947 57.998646 
L 335.615942 57.987682 
L 336.157936 58.091865 
L 337.241924 57.62577 
L 337.783919 57.993163 
L 338.325913 57.757376 
L 338.867907 57.033554 
L 339.409901 57.466752 
L 339.951896 57.636739 
L 340.49389 57.521584 
L 341.035884 56.912921 
L 341.577878 57.510619 
L 342.119873 57.340629 
L 342.661867 57.01162 
L 343.203861 57.14871 
L 343.745855 57.033557 
L 344.287849 56.75938 
L 345.371838 56.699065 
L 345.913832 56.770347 
L 346.455826 56.50166 
L 346.997821 56.616813 
L 347.539815 56.353606 
L 348.081809 56.611329 
L 348.623803 56.238453 
L 349.165798 56.402957 
L 349.707792 56.128783 
L 350.249786 56.167168 
L 350.79178 55.931378 
L 351.333774 56.024597 
L 351.875769 55.591403 
L 352.417763 56.041045 
L 352.959757 55.640754 
L 353.501751 55.509151 
L 354.58574 55.585919 
L 355.127734 55.410448 
L 355.669728 55.4927 
L 356.211723 55.717523 
L 356.753717 55.245944 
L 357.295711 55.421415 
L 358.379699 55.388514 
L 358.921694 55.026605 
L 359.463688 55.267878 
L 362.173659 55.026605 
L 362.715653 54.659212 
L 363.799642 55.048539 
L 364.341636 54.659209 
L 364.88363 54.626311 
L 365.425625 54.823716 
L 365.967619 54.505674 
L 367.051607 54.483738 
L 367.593601 54.489224 
L 368.135596 54.280852 
L 368.67759 54.582443 
L 369.219584 54.57696 
L 369.761578 54.143765 
L 370.303573 54.615344 
L 370.845567 53.995711 
L 371.387561 54.428906 
L 373.013544 53.973777 
L 374.097532 54.077963 
L 374.639526 53.935393 
L 375.181521 54.099897 
L 376.265509 53.968294 
L 376.807503 53.913459 
L 378.97548 54.204083 
L 379.517475 53.809273 
L 380.059469 53.940876 
L 380.601463 53.886042 
L 381.143457 54.012162 
L 381.685452 53.568 
L 382.227446 53.69412 
L 382.76944 53.968294 
L 383.311434 53.71057 
L 383.853428 53.858624 
L 384.937417 53.716054 
L 385.479411 53.847657 
L 386.5634 53.732504 
L 387.105394 54.039579 
L 388.731377 53.622835 
L 389.815365 54.023129 
L 390.357359 53.727021 
L 390.899353 53.891525 
L 391.983342 53.842174 
L 392.525336 53.628318 
L 394.151319 53.814756 
L 394.693313 53.798306 
L 395.777302 54.077963 
L 397.403284 53.864108 
L 398.487273 54.045062 
L 398.487273 54.045062 
" clip-path="url(#p8415319cf0)" style="fill: none; stroke: #1f77b4; stroke-width: 1.5; stroke-linecap: square"/>
   </g>
   <g id="line2d_14">
    <path d="M 73.832727 295.488 
L 74.374722 192.288978 
L 74.916716 161.252508 
L 75.45871 143.732798 
L 76.542698 122.676249 
L 77.084693 120.455441 
L 77.626687 111.325453 
L 78.168681 107.816031 
L 78.710675 99.700484 
L 79.25267 96.136227 
L 79.794664 96.355563 
L 80.336658 97.287757 
L 80.878652 97.616765 
L 81.420647 95.587879 
L 81.962641 97.013583 
L 82.504635 95.88947 
L 83.046629 94.079923 
L 83.588623 88.733534 
L 84.130618 88.130351 
L 84.672612 102.414804 
L 85.7566 80.042224 
L 86.298595 83.661318 
L 86.840589 83.798405 
L 87.382583 86.732065 
L 87.924577 83.112968 
L 88.466572 85.909541 
L 89.55056 80.316395 
L 90.092554 79.411624 
L 90.634548 81.138916 
L 91.176543 80.288977 
L 91.718537 77.958503 
L 92.260531 81.659849 
L 92.802525 82.125945 
L 93.34452 82.838797 
L 93.886514 88.212603 
L 94.428508 78.781024 
L 94.970502 79.685798 
L 95.512497 79.027781 
L 96.054491 76.066703 
L 96.596485 79.356789 
L 97.138479 84.127414 
L 97.680474 78.260091 
L 98.222468 86.67723 
L 98.764462 76.121538 
L 99.306456 75.655443 
L 99.84845 73.955562 
L 100.390445 75.545773 
L 100.932439 77.739164 
L 101.474433 85.553115 
L 102.016427 74.805501 
L 102.558422 80.151893 
L 103.100416 94.326677 
L 103.64241 75.107095 
L 104.184404 80.234143 
L 104.726399 75.244179 
L 105.268393 74.586162 
L 105.810387 74.476492 
L 106.352381 78.369761 
L 106.894375 77.903665 
L 107.43637 76.368295 
L 107.978364 76.779555 
L 108.520358 78.342346 
L 109.062352 78.890691 
L 109.604347 73.242713 
L 110.146341 74.750669 
L 111.230329 76.971474 
L 111.772324 78.561685 
L 112.314318 75.05226 
L 112.856312 77.656911 
L 113.398306 75.518353 
L 113.940301 78.09559 
L 114.482295 75.957034 
L 115.024289 75.326431 
L 115.566283 71.625088 
L 116.108277 78.09559 
L 116.650272 81.906606 
L 117.192266 73.023371 
L 117.73426 71.844424 
L 118.276254 76.340877 
L 118.818249 78.369761 
L 119.360243 75.600605 
L 119.902237 81.029249 
L 120.444231 73.133044 
L 120.986226 76.094118 
L 121.52822 72.310522 
L 122.070214 72.20085 
L 122.612208 73.133041 
L 123.154202 70.884815 
L 124.238191 73.653974 
L 124.780185 80.946997 
L 125.322179 70.363885 
L 125.864174 74.147484 
L 126.406168 73.708809 
L 126.948162 72.063763 
L 127.490156 70.93965 
L 128.032151 70.226798 
L 128.574145 84.511257 
L 129.116139 70.939653 
L 129.658133 76.066703 
L 130.200127 70.363888 
L 130.742122 72.420192 
L 131.284116 73.763641 
L 131.82611 72.995957 
L 132.368104 74.174901 
L 132.910099 71.213827 
L 133.452093 72.008928 
L 133.994087 74.668414 
L 134.536081 72.666948 
L 135.078076 74.750666 
L 135.62007 70.41872 
L 136.162064 70.281636 
L 136.704058 70.391305 
L 137.246053 72.72178 
L 137.788047 70.96707 
L 138.330041 73.133044 
L 138.872035 74.010397 
L 139.414029 75.216762 
L 139.956024 70.528392 
L 140.498018 73.516884 
L 141.040012 70.089711 
L 141.582006 72.255687 
L 142.124001 70.775146 
L 142.665995 75.326431 
L 143.207989 69.40428 
L 143.749983 71.268662 
L 144.291978 70.500975 
L 144.833972 71.954096 
L 145.375966 71.186409 
L 145.91796 70.199384 
L 146.459954 72.008928 
L 147.001949 71.268659 
L 147.543943 73.955562 
L 148.085937 68.66401 
L 148.627931 68.691428 
L 149.169926 70.912236 
L 149.71192 70.226798 
L 150.253914 71.131572 
L 150.795908 69.102686 
L 151.337903 71.350914 
L 151.879897 68.855929 
L 153.505879 70.226801 
L 154.047874 67.649567 
L 154.589868 73.270128 
L 155.131862 68.828512 
L 155.673856 69.760706 
L 156.215851 66.689956 
L 156.757845 76.669883 
L 157.299839 68.389836 
L 157.841833 69.733288 
L 158.383828 69.157523 
L 158.925822 69.020436 
L 159.467816 69.102686 
L 160.00981 71.515415 
L 160.551805 78.808441 
L 161.093799 67.676985 
L 162.177787 69.239775 
L 162.719781 66.415785 
L 163.261776 71.981513 
L 163.80377 70.062297 
L 164.345764 71.899259 
L 164.887758 69.184938 
L 165.429753 68.25275 
L 165.971747 70.254216 
L 166.513741 67.101217 
L 167.055735 68.389834 
L 167.59773 67.978576 
L 168.139724 68.225332 
L 168.681718 69.157523 
L 169.223712 69.157523 
L 169.765706 71.296079 
L 170.307701 70.089714 
L 170.849695 67.430225 
L 171.391689 68.636593 
L 171.933683 67.786651 
L 172.475678 69.651033 
L 173.017672 68.910764 
L 173.559666 66.689956 
L 174.10166 69.92521 
L 174.643655 71.186407 
L 175.185649 68.74626 
L 175.727643 70.528392 
L 176.269637 68.25275 
L 176.811632 71.323494 
L 177.353626 70.720311 
L 177.89562 66.881881 
L 178.979608 70.171964 
L 179.521603 69.15752 
L 180.063597 69.733288 
L 180.605591 68.280164 
L 181.147585 68.499503 
L 181.68958 67.978576 
L 182.231574 69.678453 
L 182.773568 66.470617 
L 183.315562 68.746262 
L 183.857557 66.223863 
L 184.399551 67.704399 
L 184.941545 67.923738 
L 185.483539 67.594732 
L 186.025533 68.526921 
L 186.567528 66.635124 
L 187.109522 66.744791 
L 187.651516 67.485063 
L 188.19351 66.635121 
L 188.735505 74.065234 
L 189.277499 66.141611 
L 189.819493 65.29167 
L 190.361487 67.046385 
L 190.903482 66.662541 
L 191.98747 67.156054 
L 192.529464 68.581758 
L 193.071458 67.101217 
L 193.613453 69.239773 
L 194.155447 67.238306 
L 195.239435 66.635124 
L 195.78143 69.568784 
L 196.323424 66.498037 
L 196.865418 67.402808 
L 197.407412 66.114194 
L 197.949407 66.031939 
L 198.491401 68.25275 
L 199.033395 68.170497 
L 199.575389 66.909298 
L 200.659378 69.568781 
L 201.201372 65.702933 
L 201.743366 64.770742 
L 202.28536 68.993019 
L 202.827355 65.29167 
L 203.369349 68.143077 
L 203.911343 67.238304 
L 204.995332 64.332064 
L 205.537326 63.756299 
L 206.07932 65.620681 
L 206.621314 66.031939 
L 207.163309 68.526923 
L 207.705303 67.101217 
L 208.247297 67.018967 
L 208.789291 65.565843 
L 209.331285 64.880412 
L 209.87328 64.770742 
L 210.415274 64.825577 
L 210.957268 68.14308 
L 211.499262 68.060825 
L 212.041257 66.717376 
L 212.583251 69.075271 
L 213.125245 65.483591 
L 213.667239 67.293141 
L 214.209234 64.085305 
L 214.751228 63.975635 
L 215.293222 65.236838 
L 215.835216 64.414316 
L 216.377211 66.580289 
L 216.919205 66.607707 
L 217.461199 64.852992 
L 218.003193 66.33353 
L 218.545187 65.73035 
L 219.087182 64.66107 
L 219.629176 65.977107 
L 220.17117 63.098279 
L 220.713164 65.949687 
L 221.255159 64.085305 
L 221.797153 66.031939 
L 222.339147 64.935244 
L 222.881141 66.196443 
L 223.423136 66.223861 
L 223.96513 65.373925 
L 224.507124 65.236838 
L 225.049118 64.935246 
L 225.591112 65.127168 
L 226.133107 65.922272 
L 226.675101 64.003053 
L 227.217095 64.990081 
L 227.759089 66.744794 
L 228.301084 64.030473 
L 229.927066 65.31909 
L 230.469061 65.072333 
L 231.011055 66.607704 
L 231.553049 64.414316 
L 232.095043 66.580287 
L 232.637037 63.372456 
L 233.179032 65.812603 
L 233.721026 63.564375 
L 234.26302 65.017499 
L 234.805014 65.73035 
L 235.347009 63.619209 
L 235.889003 62.577352 
L 236.972991 63.893383 
L 237.514986 64.003055 
L 238.05698 64.715907 
L 238.598974 63.317618 
L 239.140968 64.852994 
L 239.682963 64.332064 
L 240.224957 67.923741 
L 240.766951 64.030473 
L 241.308945 63.153117 
L 241.850939 63.01603 
L 242.392934 64.304647 
L 242.934928 63.043444 
L 243.476922 65.154585 
L 244.018916 64.715907 
L 244.560911 63.53696 
L 245.102905 64.304647 
L 245.644899 64.414316 
L 246.186893 63.564375 
L 246.728888 63.427288 
L 247.270882 64.332064 
L 247.812876 63.180531 
L 248.896864 65.099748 
L 249.438859 64.990081 
L 249.980853 64.03047 
L 250.522847 64.57882 
L 251.064841 63.591795 
L 251.606836 62.878943 
L 252.14883 63.728879 
L 252.690824 63.043447 
L 253.232818 63.701461 
L 253.774813 63.207949 
L 254.316807 62.90636 
L 254.858801 62.741856 
L 255.400795 61.974166 
L 255.942789 62.193508 
L 256.484784 62.769271 
L 257.026778 63.893383 
L 257.568772 61.699993 
L 258.110766 63.235366 
L 258.652761 63.701464 
L 259.194755 64.386896 
L 259.736749 62.659604 
L 260.278743 64.085308 
L 260.820738 63.290204 
L 261.362732 63.509543 
L 261.904726 62.303178 
L 262.44672 61.782248 
L 262.988715 62.24834 
L 263.530709 64.359481 
L 264.072703 65.428759 
L 264.614697 62.111253 
L 265.156691 61.72741 
L 265.698686 62.440262 
L 266.24068 62.303175 
L 266.782674 64.688487 
L 267.324668 62.330592 
L 267.866663 61.809665 
L 268.408657 62.632186 
L 268.950651 63.235369 
L 269.492645 62.440262 
L 270.03464 62.166088 
L 271.118628 61.2339 
L 271.660622 62.330595 
L 272.202616 61.891917 
L 272.744611 62.166091 
L 273.286605 61.645161 
L 273.828599 62.796691 
L 274.370593 61.480656 
L 274.912588 62.001587 
L 275.454582 61.535491 
L 275.996576 62.303175 
L 276.53857 61.535491 
L 277.080565 61.809662 
L 277.622559 61.508074 
L 278.164553 62.248343 
L 278.706547 60.71297 
L 279.248542 62.577349 
L 279.790536 62.604769 
L 280.33253 61.809665 
L 280.874524 62.522514 
L 281.416518 60.603297 
L 281.958513 61.014561 
L 282.500507 61.72741 
L 283.042501 61.72741 
L 283.584495 62.714438 
L 284.12649 62.193508 
L 284.668484 60.822639 
L 285.210478 62.796691 
L 285.752472 62.111253 
L 286.294467 61.974166 
L 286.836461 61.233897 
L 287.378455 61.809665 
L 287.920449 61.590326 
L 288.462443 61.809665 
L 289.004438 61.20648 
L 289.546432 60.301706 
L 290.088426 60.548465 
L 291.172415 60.219454 
L 291.714409 61.288732 
L 292.798397 61.069396 
L 293.340392 60.630715 
L 293.882386 60.411378 
L 294.42438 60.411376 
L 294.966374 60.850057 
L 295.508368 60.630717 
L 296.050363 60.987143 
L 296.592357 61.096813 
L 297.134351 62.687021 
L 297.676345 61.09681 
L 298.21834 61.233897 
L 298.760334 60.411376 
L 299.302328 60.6033 
L 299.844322 59.780779 
L 300.386317 60.027535 
L 300.928311 60.575883 
L 301.470305 60.192037 
L 302.012299 60.493628 
L 302.554294 59.972698 
L 303.096288 60.356544 
L 303.638282 59.808196 
L 304.180276 60.685552 
L 304.72227 60.301706 
L 305.264265 59.451767 
L 306.348253 60.054952 
L 306.890247 60.6033 
L 307.432242 60.767802 
L 307.974236 59.396933 
L 308.51623 60.71297 
L 309.058224 60.164619 
L 309.600219 60.71297 
L 310.142213 60.630717 
L 310.684207 60.411376 
L 311.226201 59.917863 
L 311.768195 60.822636 
L 312.31019 60.822639 
L 312.852184 59.671109 
L 313.394178 60.329124 
L 313.936172 60.219454 
L 314.478167 59.259848 
L 315.020161 58.738915 
L 315.562155 60.000118 
L 316.104149 60.246874 
L 316.646144 59.232431 
L 317.188138 59.095341 
L 318.272126 58.574411 
L 318.814121 60.987143 
L 319.356115 59.095344 
L 320.440103 59.972698 
L 320.982097 58.985675 
L 321.524092 58.903422 
L 322.066086 59.753361 
L 323.150074 59.835611 
L 323.692069 59.040509 
L 324.234063 58.546996 
L 324.776057 58.90342 
L 325.318051 59.506602 
L 325.860046 58.876002 
L 326.40204 58.903422 
L 326.944034 59.835611 
L 327.486028 58.985675 
L 328.028022 58.656663 
L 329.112011 59.040509 
L 329.654005 58.382492 
L 330.195999 59.314683 
L 330.737994 58.82117 
L 331.279988 58.958257 
L 331.821982 59.259848 
L 332.363976 58.79375 
L 332.905971 58.546996 
L 333.989959 58.382489 
L 334.531953 59.177594 
L 335.073947 58.108316 
L 335.615942 58.437327 
L 336.157936 57.505136 
L 336.69993 58.629246 
L 337.241924 58.190571 
L 338.325913 58.080898 
L 338.867907 57.943814 
L 339.409901 58.40991 
L 340.49389 58.327655 
L 341.035884 57.669638 
L 341.577878 58.519576 
L 342.119873 57.971231 
L 342.661867 57.943814 
L 343.203861 57.75189 
L 343.745855 57.724472 
L 344.287849 57.888979 
L 344.829844 58.300237 
L 345.913832 57.724475 
L 346.455826 58.135733 
L 348.081809 56.984206 
L 348.623803 57.477719 
L 349.707792 57.587388 
L 350.79178 57.14871 
L 351.333774 57.368046 
L 351.875769 57.806727 
L 352.417763 57.450301 
L 352.959757 57.313214 
L 353.501751 56.874536 
L 354.043746 57.587388 
L 355.127734 57.861562 
L 356.211723 57.477716 
L 356.753717 57.587388 
L 357.295711 57.230959 
L 357.837705 57.559968 
L 358.379699 57.176125 
L 358.921694 57.587388 
L 360.005682 56.710032 
L 360.547676 57.039041 
L 361.089671 56.874536 
L 361.631665 56.874536 
L 362.173659 57.066458 
L 362.715653 57.039041 
L 363.257648 56.600362 
L 363.799642 57.039041 
L 364.341636 57.01162 
L 364.88363 57.203545 
L 365.425625 57.093875 
L 365.967619 57.505133 
L 366.509613 57.093875 
L 368.67759 57.121293 
L 369.219584 57.25838 
L 369.761578 56.901954 
L 370.845567 56.792284 
L 371.929555 57.066458 
L 372.47155 57.14871 
L 373.013544 56.710032 
L 374.097532 57.011623 
L 375.181521 56.435858 
L 376.265509 56.956788 
L 377.891492 56.819699 
L 378.433486 56.874533 
L 378.97548 56.682615 
L 380.059469 56.847119 
L 380.601463 56.490693 
L 381.143457 56.62778 
L 381.685452 56.435855 
L 382.227446 56.408438 
L 382.76944 56.51811 
L 383.311434 56.901954 
L 383.853428 56.572942 
L 384.395423 56.737447 
L 384.937417 56.710029 
L 385.479411 56.408438 
L 386.021405 56.655194 
L 386.5634 56.572945 
L 387.647388 56.737447 
L 388.189382 56.682612 
L 388.731377 56.901954 
L 389.273371 56.408438 
L 389.815365 56.62778 
L 390.357359 56.682612 
L 390.899353 56.463275 
L 391.441348 56.435855 
L 392.525336 56.627777 
L 393.06733 56.572945 
L 393.609325 56.655194 
L 394.151319 56.49069 
L 394.693313 56.572945 
L 395.777302 56.518108 
L 396.86129 56.627777 
L 397.403284 56.49069 
L 397.945278 56.545525 
L 398.487273 56.435855 
L 398.487273 56.435855 
" clip-path="url(#p8415319cf0)" style="fill: none; stroke: #ff7f0e; stroke-width: 1.5; stroke-linecap: square"/>
   </g>
   <g id="patch_3">
    <path d="M 57.6 307.584 
L 57.6 41.472 
" style="fill: none; stroke: #000000; stroke-width: 0.8; stroke-linejoin: miter; stroke-linecap: square"/>
   </g>
   <g id="patch_4">
    <path d="M 414.72 307.584 
L 414.72 41.472 
" style="fill: none; stroke: #000000; stroke-width: 0.8; stroke-linejoin: miter; stroke-linecap: square"/>
   </g>
   <g id="patch_5">
    <path d="M 57.6 307.584 
L 414.72 307.584 
" style="fill: none; stroke: #000000; stroke-width: 0.8; stroke-linejoin: miter; stroke-linecap: square"/>
   </g>
   <g id="patch_6">
    <path d="M 57.6 41.472 
L 414.72 41.472 
" style="fill: none; stroke: #000000; stroke-width: 0.8; stroke-linejoin: miter; stroke-linecap: square"/>
   </g>
   <g id="legend_1">
    <g id="patch_7">
     <path d="M 306.1825 302.584 
L 407.72 302.584 
Q 409.72 302.584 409.72 300.584 
L 409.72 272.22775 
Q 409.72 270.22775 407.72 270.22775 
L 306.1825 270.22775 
Q 304.1825 270.22775 304.1825 272.22775 
L 304.1825 300.584 
Q 304.1825 302.584 306.1825 302.584 
z
" style="fill: #ffffff; opacity: 0.8; stroke: #cccccc; stroke-linejoin: miter"/>
    </g>
    <g id="line2d_15">
     <path d="M 308.1825 278.326187 
L 318.1825 278.326187 
L 328.1825 278.326187 
" style="fill: none; stroke: #1f77b4; stroke-width: 1.5; stroke-linecap: square"/>
    </g>
    <g id="text_15">
     <!-- train acc -->
     <g transform="translate(336.1825 281.826187)scale(0.1 -0.1)">
      <defs>
       <path id="DejaVuSans-74" d="M 1172 4494 
L 1172 3500 
L 2356 3500 
L 2356 3053 
L 1172 3053 
L 1172 1153 
Q 1172 725 1289 603 
Q 1406 481 1766 481 
L 2356 481 
L 2356 0 
L 1766 0 
Q 1100 0 847 248 
Q 594 497 594 1153 
L 594 3053 
L 172 3053 
L 172 3500 
L 594 3500 
L 594 4494 
L 1172 4494 
z
" transform="scale(0.015625)"/>
       <path id="DejaVuSans-69" d="M 603 3500 
L 1178 3500 
L 1178 0 
L 603 0 
L 603 3500 
z
M 603 4863 
L 1178 4863 
L 1178 4134 
L 603 4134 
L 603 4863 
z
" transform="scale(0.015625)"/>
       <path id="DejaVuSans-6e" d="M 3513 2113 
L 3513 0 
L 2938 0 
L 2938 2094 
Q 2938 2591 2744 2837 
Q 2550 3084 2163 3084 
Q 1697 3084 1428 2787 
Q 1159 2491 1159 1978 
L 1159 0 
L 581 0 
L 581 3500 
L 1159 3500 
L 1159 2956 
Q 1366 3272 1645 3428 
Q 1925 3584 2291 3584 
Q 2894 3584 3203 3211 
Q 3513 2838 3513 2113 
z
" transform="scale(0.015625)"/>
       <path id="DejaVuSans-20" transform="scale(0.015625)"/>
      </defs>
      <use xlink:href="#DejaVuSans-74"/>
      <use xlink:href="#DejaVuSans-72" x="39.208984"/>
      <use xlink:href="#DejaVuSans-61" x="80.322266"/>
      <use xlink:href="#DejaVuSans-69" x="141.601562"/>
      <use xlink:href="#DejaVuSans-6e" x="169.384766"/>
      <use xlink:href="#DejaVuSans-20" x="232.763672"/>
      <use xlink:href="#DejaVuSans-61" x="264.550781"/>
      <use xlink:href="#DejaVuSans-63" x="325.830078"/>
      <use xlink:href="#DejaVuSans-63" x="380.810547"/>
     </g>
    </g>
    <g id="line2d_16">
     <path d="M 308.1825 293.004312 
L 318.1825 293.004312 
L 328.1825 293.004312 
" style="fill: none; stroke: #ff7f0e; stroke-width: 1.5; stroke-linecap: square"/>
    </g>
    <g id="text_16">
     <!-- validation acc -->
     <g transform="translate(336.1825 296.504312)scale(0.1 -0.1)">
      <defs>
       <path id="DejaVuSans-76" d="M 191 3500 
L 800 3500 
L 1894 563 
L 2988 3500 
L 3597 3500 
L 2284 0 
L 1503 0 
L 191 3500 
z
" transform="scale(0.015625)"/>
       <path id="DejaVuSans-6c" d="M 603 4863 
L 1178 4863 
L 1178 0 
L 603 0 
L 603 4863 
z
" transform="scale(0.015625)"/>
       <path id="DejaVuSans-64" d="M 2906 2969 
L 2906 4863 
L 3481 4863 
L 3481 0 
L 2906 0 
L 2906 525 
Q 2725 213 2448 61 
Q 2172 -91 1784 -91 
Q 1150 -91 751 415 
Q 353 922 353 1747 
Q 353 2572 751 3078 
Q 1150 3584 1784 3584 
Q 2172 3584 2448 3432 
Q 2725 3281 2906 2969 
z
M 947 1747 
Q 947 1113 1208 752 
Q 1469 391 1925 391 
Q 2381 391 2643 752 
Q 2906 1113 2906 1747 
Q 2906 2381 2643 2742 
Q 2381 3103 1925 3103 
Q 1469 3103 1208 2742 
Q 947 2381 947 1747 
z
" transform="scale(0.015625)"/>
      </defs>
      <use xlink:href="#DejaVuSans-76"/>
      <use xlink:href="#DejaVuSans-61" x="59.179688"/>
      <use xlink:href="#DejaVuSans-6c" x="120.458984"/>
      <use xlink:href="#DejaVuSans-69" x="148.242188"/>
      <use xlink:href="#DejaVuSans-64" x="176.025391"/>
      <use xlink:href="#DejaVuSans-61" x="239.501953"/>
      <use xlink:href="#DejaVuSans-74" x="300.78125"/>
      <use xlink:href="#DejaVuSans-69" x="339.990234"/>
      <use xlink:href="#DejaVuSans-6f" x="367.773438"/>
      <use xlink:href="#DejaVuSans-6e" x="428.955078"/>
      <use xlink:href="#DejaVuSans-20" x="492.333984"/>
      <use xlink:href="#DejaVuSans-61" x="524.121094"/>
      <use xlink:href="#DejaVuSans-63" x="585.400391"/>
      <use xlink:href="#DejaVuSans-63" x="640.380859"/>
     </g>
    </g>
   </g>
  </g>
 </g>
 <defs>
  <clipPath id="p8415319cf0">
   <rect x="57.6" y="41.472" width="357.12" height="266.112"/>
  </clipPath>
 </defs>
</svg>
